# xmcd
#
# Track frame offsets: 
#        150
#        9050
#        19753
#        32598
#        46299
#        56709
#        71134
#        80892
#        93289
#        105861
#        118451
#        129865
#        140264
#        153796
#        166137
#        176686
#        189484
#        202023
#        215736
#        222945
#        239250
#
# Disc length: 3371 seconds
#
# Revision: 0
# Processed by: cddbd v1.5.2PL0 Copyright (c) Steve Scherf et al.
# Submitted via: ExactAudioCopy v1.1
#
DISCID=1f0d2915
DTITLE=Various Artist - All-Time Country Favourite - 1960-1964 Disc 2
DYEAR=2009
DGENRE=Country
TTITLE0=Everly Brothers - When will I be loved
TTITLE1=Don Gibson - Lonesome number one
TTITLE2=Johnny Horton - North to Alaska
TTITLE3=Patsy Cline - She's got you
TTITLE4=Jim Reeves - Losing your love
TTITLE5=Marty Robins - Don't worry
TTITLE6=Dave Dudley - Six days on the road
TTITLE7=Johnny Cash - Understand your man
TTITLE8=Bobby Bare - Four strong winds
TTITLE9=Skeeter Davis - ( I can't help you ) I'm falling too
TTITLE10=Roy Drusky - Three hearts in a tangle
TTITLE11=Billy Walker - Charlies shoes
TTITLE12=Claude King - Wolverton Mountain
TTITLE13=Willie Nelson and Shirley Collie - Willingly
TTITLE14=Connie Smith - Once a day
TTITLE15=Johnny Tillotson - It keeps right on a-hurtin'
TTITLE16=Hank Snow - I've been everywhere
TTITLE17=Lefty Frizzel - Saginaw. Michigan
TTITLE18=Lester Flatt and Earl Scruggs - The ballad of Jed Clampett
TTITLE19=Lorne Greene - Ringo
TTITLE20=Jimmy Dean - Big bad John
EXTD=
EXTT0=
EXTT1=
EXTT2=
EXTT3=
EXTT4=
EXTT5=
EXTT6=
EXTT7=
EXTT8=
EXTT9=
EXTT10=
EXTT11=
EXTT12=
EXTT13=
EXTT14=
EXTT15=
EXTT16=
EXTT17=
EXTT18=
EXTT19=
EXTT20=
PLAYORDER=
